<?xml version="1.0" encoding="UTF-8" standalone="no"?>
<!DOCTYPE svg PUBLIC "-//W3C//DTD SVG 1.1//EN"
 "http://www.w3.org/Graphics/SVG/1.1/DTD/svg11.dtd">
<!-- Generated by graphviz version 12.1.1 (20240910.0053)
 -->
<!-- Title: G Pages: 1 -->
<svg width="3223pt" height="235pt"
 viewBox="0.00 0.00 3222.75 234.62" xmlns="http://www.w3.org/2000/svg" xmlns:xlink="http://www.w3.org/1999/xlink">
<g id="graph0" class="graph" transform="scale(1 1) rotate(0) translate(4 230.62)">
<title>G</title>
<polygon fill="white" stroke="none" points="-4,4 -4,-230.62 3218.75,-230.62 3218.75,4 -4,4"/>
<!-- data.aws_network_interface.interface_tags -->
<g id="node1" class="node">
<title>data.aws_network_interface.interface_tags</title>
<polygon fill="none" stroke="black" points="2137,-105 1824.75,-105 1824.75,-69 2137,-69 2137,-105"/>
<text text-anchor="middle" x="1980.88" y="-82.33" font-family="sans-serif" font-size="14.00">data.aws_network_interface.interface_tags</text>
</g>
<!-- aws_ecs_service.cloud_a_service -->
<g id="node4" class="node">
<title>aws_ecs_service.cloud_a_service</title>
<polygon fill="none" stroke="black" points="1788.75,-113 1546.25,-113 1546.25,-77 1788.75,-77 1788.75,-113"/>
<text text-anchor="middle" x="1667.5" y="-90.33" font-family="sans-serif" font-size="14.00">aws_ecs_service.cloud_a_service</text>
</g>
<!-- data.aws_network_interface.interface_tags&#45;&gt;aws_ecs_service.cloud_a_service -->
<g id="edge1" class="edge">
<title>data.aws_network_interface.interface_tags&#45;&gt;aws_ecs_service.cloud_a_service</title>
<path fill="none" stroke="black" d="M1824.64,-90.99C1816.46,-91.2 1808.28,-91.41 1800.19,-91.62"/>
<polygon fill="black" stroke="black" points="1800.24,-88.11 1790.33,-91.87 1800.42,-95.11 1800.24,-88.11"/>
</g>
<!-- data.volterra_http_loadbalancer_state.cloud_a_lb_state -->
<g id="node2" class="node">
<title>data.volterra_http_loadbalancer_state.cloud_a_lb_state</title>
<polygon fill="none" stroke="black" points="3214.75,-90 2820,-90 2820,-54 3214.75,-54 3214.75,-90"/>
<text text-anchor="middle" x="3017.38" y="-67.33" font-family="sans-serif" font-size="14.00">data.volterra_http_loadbalancer_state.cloud_a_lb_state</text>
</g>
<!-- volterra_http_loadbalancer.cloud_a -->
<g id="node12" class="node">
<title>volterra_http_loadbalancer.cloud_a</title>
<polygon fill="none" stroke="black" points="2776.5,-90 2520.5,-90 2520.5,-54 2776.5,-54 2776.5,-90"/>
<text text-anchor="middle" x="2648.5" y="-67.33" font-family="sans-serif" font-size="14.00">volterra_http_loadbalancer.cloud_a</text>
</g>
<!-- data.volterra_http_loadbalancer_state.cloud_a_lb_state&#45;&gt;volterra_http_loadbalancer.cloud_a -->
<g id="edge2" class="edge">
<title>data.volterra_http_loadbalancer_state.cloud_a_lb_state&#45;&gt;volterra_http_loadbalancer.cloud_a</title>
<path fill="none" stroke="black" d="M2819.51,-72C2809.01,-72 2798.58,-72 2788.33,-72"/>
<polygon fill="black" stroke="black" points="2788.38,-68.5 2778.38,-72 2788.38,-75.5 2788.38,-68.5"/>
</g>
<!-- aws_ecs_cluster.cloud_a_cluster -->
<g id="node3" class="node">
<title>aws_ecs_cluster.cloud_a_cluster</title>
<polygon fill="none" stroke="black" points="1491.5,-190 1255,-190 1255,-154 1491.5,-154 1491.5,-190"/>
<text text-anchor="middle" x="1373.25" y="-167.32" font-family="sans-serif" font-size="14.00">aws_ecs_cluster.cloud_a_cluster</text>
</g>
<!-- aws_ecs_service.cloud_a_service&#45;&gt;aws_ecs_cluster.cloud_a_cluster -->
<g id="edge3" class="edge">
<title>aws_ecs_service.cloud_a_service&#45;&gt;aws_ecs_cluster.cloud_a_cluster</title>
<path fill="none" stroke="black" d="M1614.14,-113.4C1584,-123.58 1545.27,-135.95 1510.25,-145 1502.15,-147.09 1493.74,-149.12 1485.25,-151.05"/>
<polygon fill="black" stroke="black" points="1484.55,-147.62 1475.55,-153.21 1486.07,-154.45 1484.55,-147.62"/>
</g>
<!-- aws_ecs_task_definition.cloud_a_task -->
<g id="node5" class="node">
<title>aws_ecs_task_definition.cloud_a_task</title>
<polygon fill="none" stroke="black" points="1510.25,-136 1236.25,-136 1236.25,-100 1510.25,-100 1510.25,-136"/>
<text text-anchor="middle" x="1373.25" y="-113.33" font-family="sans-serif" font-size="14.00">aws_ecs_task_definition.cloud_a_task</text>
</g>
<!-- aws_ecs_service.cloud_a_service&#45;&gt;aws_ecs_task_definition.cloud_a_task -->
<g id="edge4" class="edge">
<title>aws_ecs_service.cloud_a_service&#45;&gt;aws_ecs_task_definition.cloud_a_task</title>
<path fill="none" stroke="black" d="M1545.94,-104.49C1538.04,-105.11 1530.02,-105.74 1522.01,-106.37"/>
<polygon fill="black" stroke="black" points="1521.88,-102.87 1512.18,-107.14 1522.43,-109.85 1521.88,-102.87"/>
</g>
<!-- aws_security_group.allow_all -->
<g id="node6" class="node">
<title>aws_security_group.allow_all</title>
<polygon fill="none" stroke="black" points="1172.12,-90 957.38,-90 957.38,-54 1172.12,-54 1172.12,-90"/>
<text text-anchor="middle" x="1064.75" y="-67.33" font-family="sans-serif" font-size="14.00">aws_security_group.allow_all</text>
</g>
<!-- aws_ecs_service.cloud_a_service&#45;&gt;aws_security_group.allow_all -->
<g id="edge5" class="edge">
<title>aws_ecs_service.cloud_a_service&#45;&gt;aws_security_group.allow_all</title>
<path fill="none" stroke="black" d="M1546.01,-90.39C1440.59,-86.35 1288.36,-80.52 1183.7,-76.52"/>
<polygon fill="black" stroke="black" points="1184.09,-73.03 1173.96,-76.14 1183.82,-80.02 1184.09,-73.03"/>
</g>
<!-- volterra_dns_zone.cloud_b_c_records -->
<g id="node10" class="node">
<title>volterra_dns_zone.cloud_b_c_records</title>
<polygon fill="none" stroke="black" points="1200.25,-144 929.25,-144 929.25,-108 1200.25,-108 1200.25,-144"/>
<text text-anchor="middle" x="1064.75" y="-121.33" font-family="sans-serif" font-size="14.00">volterra_dns_zone.cloud_b_c_records</text>
</g>
<!-- aws_ecs_task_definition.cloud_a_task&#45;&gt;volterra_dns_zone.cloud_b_c_records -->
<g id="edge6" class="edge">
<title>aws_ecs_task_definition.cloud_a_task&#45;&gt;volterra_dns_zone.cloud_b_c_records</title>
<path fill="none" stroke="black" d="M1236.03,-121.56C1227.99,-121.77 1219.88,-121.98 1211.81,-122.19"/>
<polygon fill="black" stroke="black" points="1211.83,-118.69 1201.92,-122.45 1212.01,-125.68 1211.83,-118.69"/>
</g>
<!-- volterra_tf_params_action.apply_aws_vpc -->
<g id="node18" class="node">
<title>volterra_tf_params_action.apply_aws_vpc</title>
<polygon fill="none" stroke="black" points="893.25,-144 590.75,-144 590.75,-108 893.25,-108 893.25,-144"/>
<text text-anchor="middle" x="742" y="-121.33" font-family="sans-serif" font-size="14.00">volterra_tf_params_action.apply_aws_vpc</text>
</g>
<!-- aws_security_group.allow_all&#45;&gt;volterra_tf_params_action.apply_aws_vpc -->
<g id="edge7" class="edge">
<title>aws_security_group.allow_all&#45;&gt;volterra_tf_params_action.apply_aws_vpc</title>
<path fill="none" stroke="black" d="M956.94,-89.98C927.08,-95.01 894.42,-100.51 863.8,-105.66"/>
<polygon fill="black" stroke="black" points="863.4,-102.18 854.12,-107.29 864.56,-109.08 863.4,-102.18"/>
</g>
<!-- volterra_app_firewall.seg_waf_config -->
<g id="node7" class="node">
<title>volterra_app_firewall.seg_waf_config</title>
<polygon fill="none" stroke="black" points="2459.38,-144 2190.62,-144 2190.62,-108 2459.38,-108 2459.38,-144"/>
<text text-anchor="middle" x="2325" y="-121.33" font-family="sans-serif" font-size="14.00">volterra_app_firewall.seg_waf_config</text>
</g>
<!-- volterra_aws_vpc_site.cloud_a_site -->
<g id="node8" class="node">
<title>volterra_aws_vpc_site.cloud_a_site</title>
<polygon fill="none" stroke="black" points="554.75,-194 300.25,-194 300.25,-158 554.75,-158 554.75,-194"/>
<text text-anchor="middle" x="427.5" y="-171.32" font-family="sans-serif" font-size="14.00">volterra_aws_vpc_site.cloud_a_site</text>
</g>
<!-- volterra_cloud_credentials.aws_cred -->
<g id="node9" class="node">
<title>volterra_cloud_credentials.aws_cred</title>
<polygon fill="none" stroke="black" points="264.25,-194 0,-194 0,-158 264.25,-158 264.25,-194"/>
<text text-anchor="middle" x="132.12" y="-171.32" font-family="sans-serif" font-size="14.00">volterra_cloud_credentials.aws_cred</text>
</g>
<!-- volterra_aws_vpc_site.cloud_a_site&#45;&gt;volterra_cloud_credentials.aws_cred -->
<g id="edge8" class="edge">
<title>volterra_aws_vpc_site.cloud_a_site&#45;&gt;volterra_cloud_credentials.aws_cred</title>
<path fill="none" stroke="black" d="M299.95,-176C291.94,-176 283.85,-176 275.77,-176"/>
<polygon fill="black" stroke="black" points="275.89,-172.5 265.89,-176 275.89,-179.5 275.89,-172.5"/>
</g>
<!-- volterra_dns_zone.cloud_b_c_records&#45;&gt;volterra_tf_params_action.apply_aws_vpc -->
<g id="edge9" class="edge">
<title>volterra_dns_zone.cloud_b_c_records&#45;&gt;volterra_tf_params_action.apply_aws_vpc</title>
<path fill="none" stroke="black" d="M929.12,-126C921.14,-126 913.07,-126 904.99,-126"/>
<polygon fill="black" stroke="black" points="905.09,-122.5 895.09,-126 905.09,-129.5 905.09,-122.5"/>
</g>
<!-- volterra_healthcheck.clouds -->
<g id="node11" class="node">
<title>volterra_healthcheck.clouds</title>
<polygon fill="none" stroke="black" points="2085.62,-178 1876.12,-178 1876.12,-142 2085.62,-142 2085.62,-178"/>
<text text-anchor="middle" x="1980.88" y="-155.32" font-family="sans-serif" font-size="14.00">volterra_healthcheck.clouds</text>
</g>
<!-- volterra_http_loadbalancer.cloud_a&#45;&gt;volterra_app_firewall.seg_waf_config -->
<g id="edge10" class="edge">
<title>volterra_http_loadbalancer.cloud_a&#45;&gt;volterra_app_firewall.seg_waf_config</title>
<path fill="none" stroke="black" d="M2537.76,-90.43C2508.64,-95.32 2477.04,-100.63 2447.34,-105.62"/>
<polygon fill="black" stroke="black" points="2446.84,-102.15 2437.56,-107.26 2448,-109.06 2446.84,-102.15"/>
</g>
<!-- volterra_origin_pool.cloud_a -->
<g id="node15" class="node">
<title>volterra_origin_pool.cloud_a</title>
<polygon fill="none" stroke="black" points="2429.38,-90 2220.62,-90 2220.62,-54 2429.38,-54 2429.38,-90"/>
<text text-anchor="middle" x="2325" y="-67.33" font-family="sans-serif" font-size="14.00">volterra_origin_pool.cloud_a</text>
</g>
<!-- volterra_http_loadbalancer.cloud_a&#45;&gt;volterra_origin_pool.cloud_a -->
<g id="edge11" class="edge">
<title>volterra_http_loadbalancer.cloud_a&#45;&gt;volterra_origin_pool.cloud_a</title>
<path fill="none" stroke="black" d="M2520.43,-72C2494.21,-72 2466.74,-72 2440.98,-72"/>
<polygon fill="black" stroke="black" points="2441.18,-68.5 2431.18,-72 2441.18,-75.5 2441.18,-68.5"/>
</g>
<!-- volterra_service_policy.allow_e_xpert_wan -->
<g id="node17" class="node">
<title>volterra_service_policy.allow_e_xpert_wan</title>
<polygon fill="none" stroke="black" points="2477,-36 2173,-36 2173,0 2477,0 2477,-36"/>
<text text-anchor="middle" x="2325" y="-13.32" font-family="sans-serif" font-size="14.00">volterra_service_policy.allow_e_xpert_wan</text>
</g>
<!-- volterra_http_loadbalancer.cloud_a&#45;&gt;volterra_service_policy.allow_e_xpert_wan -->
<g id="edge12" class="edge">
<title>volterra_http_loadbalancer.cloud_a&#45;&gt;volterra_service_policy.allow_e_xpert_wan</title>
<path fill="none" stroke="black" d="M2537.76,-53.57C2508.64,-48.68 2477.04,-43.37 2447.34,-38.38"/>
<polygon fill="black" stroke="black" points="2448,-34.94 2437.56,-36.74 2446.84,-41.85 2448,-34.94"/>
</g>
<!-- volterra_http_loadbalancer.cloud_b_c -->
<g id="node13" class="node">
<title>volterra_http_loadbalancer.cloud_b_c</title>
<polygon fill="none" stroke="black" points="2784,-198 2513,-198 2513,-162 2784,-162 2784,-198"/>
<text text-anchor="middle" x="2648.5" y="-175.32" font-family="sans-serif" font-size="14.00">volterra_http_loadbalancer.cloud_b_c</text>
</g>
<!-- volterra_http_loadbalancer.cloud_b_c&#45;&gt;volterra_app_firewall.seg_waf_config -->
<g id="edge13" class="edge">
<title>volterra_http_loadbalancer.cloud_b_c&#45;&gt;volterra_app_firewall.seg_waf_config</title>
<path fill="none" stroke="black" d="M2537.76,-161.57C2508.64,-156.68 2477.04,-151.37 2447.34,-146.38"/>
<polygon fill="black" stroke="black" points="2448,-142.94 2437.56,-144.74 2446.84,-149.85 2448,-142.94"/>
</g>
<!-- volterra_http_loadbalancer.cloud_b_c&#45;&gt;volterra_aws_vpc_site.cloud_a_site -->
<g id="edge14" class="edge">
<title>volterra_http_loadbalancer.cloud_b_c&#45;&gt;volterra_aws_vpc_site.cloud_a_site</title>
<path fill="none" stroke="black" d="M2543.61,-198.46C2521.68,-201.8 2498.62,-204.88 2477,-207 2257.83,-228.48 2202.09,-226 1981.88,-226 1981.88,-226 1981.88,-226 1063.75,-226 891.89,-226 694.69,-207.59 566.18,-193.11"/>
<polygon fill="black" stroke="black" points="566.96,-189.68 556.63,-192.03 566.17,-196.63 566.96,-189.68"/>
</g>
<!-- volterra_origin_pool.cloud_b_c -->
<g id="node16" class="node">
<title>volterra_origin_pool.cloud_b_c</title>
<polygon fill="none" stroke="black" points="2436.88,-198 2213.12,-198 2213.12,-162 2436.88,-162 2436.88,-198"/>
<text text-anchor="middle" x="2325" y="-175.32" font-family="sans-serif" font-size="14.00">volterra_origin_pool.cloud_b_c</text>
</g>
<!-- volterra_http_loadbalancer.cloud_b_c&#45;&gt;volterra_origin_pool.cloud_b_c -->
<g id="edge15" class="edge">
<title>volterra_http_loadbalancer.cloud_b_c&#45;&gt;volterra_origin_pool.cloud_b_c</title>
<path fill="none" stroke="black" d="M2512.55,-180C2491.38,-180 2469.6,-180 2448.73,-180"/>
<polygon fill="black" stroke="black" points="2448.75,-176.5 2438.75,-180 2448.75,-183.5 2448.75,-176.5"/>
</g>
<!-- volterra_modify_site.tde_seg_ce_vmware_gve -->
<g id="node14" class="node">
<title>volterra_modify_site.tde_seg_ce_vmware_gve</title>
<polygon fill="none" stroke="black" points="3182.12,-144 2852.62,-144 2852.62,-108 3182.12,-108 3182.12,-144"/>
<text text-anchor="middle" x="3017.38" y="-121.33" font-family="sans-serif" font-size="14.00">volterra_modify_site.tde_seg_ce_vmware_gve</text>
</g>
<!-- volterra_origin_pool.cloud_a&#45;&gt;data.aws_network_interface.interface_tags -->
<g id="edge16" class="edge">
<title>volterra_origin_pool.cloud_a&#45;&gt;data.aws_network_interface.interface_tags</title>
<path fill="none" stroke="black" d="M2220.42,-76.54C2197.74,-77.54 2173.17,-78.61 2148.72,-79.69"/>
<polygon fill="black" stroke="black" points="2148.85,-76.18 2139.01,-80.11 2149.15,-83.17 2148.85,-76.18"/>
</g>
<!-- volterra_origin_pool.cloud_a&#45;&gt;volterra_healthcheck.clouds -->
<g id="edge17" class="edge">
<title>volterra_origin_pool.cloud_a&#45;&gt;volterra_healthcheck.clouds</title>
<path fill="none" stroke="black" d="M2220.15,-87.49C2204.22,-90.75 2188.07,-94.57 2173,-99 2156.37,-103.89 2153.33,-108.19 2137,-114 2112.45,-122.73 2085.32,-131.17 2060.7,-138.39"/>
<polygon fill="black" stroke="black" points="2060.04,-134.94 2051.41,-141.09 2061.99,-141.66 2060.04,-134.94"/>
</g>
<!-- volterra_origin_pool.cloud_b_c&#45;&gt;volterra_healthcheck.clouds -->
<g id="edge18" class="edge">
<title>volterra_origin_pool.cloud_b_c&#45;&gt;volterra_healthcheck.clouds</title>
<path fill="none" stroke="black" d="M2212.92,-173.51C2175.97,-171.35 2134.73,-168.94 2097.45,-166.76"/>
<polygon fill="black" stroke="black" points="2097.71,-163.27 2087.52,-166.18 2097.3,-170.25 2097.71,-163.27"/>
</g>
<!-- volterra_tf_params_action.apply_aws_vpc&#45;&gt;volterra_aws_vpc_site.cloud_a_site -->
<g id="edge19" class="edge">
<title>volterra_tf_params_action.apply_aws_vpc&#45;&gt;volterra_aws_vpc_site.cloud_a_site</title>
<path fill="none" stroke="black" d="M625.52,-144.48C602.66,-148.13 578.55,-151.99 555.34,-155.71"/>
<polygon fill="black" stroke="black" points="554.84,-152.24 545.52,-157.28 555.94,-159.15 554.84,-152.24"/>
</g>
</g>
</svg>
